<svg id="Layer_1" data-name="Layer 1" xmlns="http://www.w3.org/2000/svg" viewBox="0 0 614.45 92.48"><defs><style>.cls-1{fill:#0071ce;}.cls-2{fill:#ffa400;}.cls-3{fill:#3dae2b;}.cls-4{fill:none;stroke:#ccc;stroke-width:2px;}.cls-5{fill:gray;}</style></defs><title>Artboard 1</title><path class="cls-1" d="M30.54,63.14a27.62,27.62,0,0,1,3.78-36.63,27.62,27.62,0,1,0,29.82,46.4A26.6,26.6,0,0,0,66.53,71,27.62,27.62,0,0,1,30.54,63.14Z"/><path class="cls-2" d="M73.08,45.93A27.64,27.64,0,0,1,44.64,69.34a26.58,26.58,0,0,0,3,.63A27.63,27.63,0,0,0,56,15.36,29.21,29.21,0,0,0,53,15.07,27.62,27.62,0,0,1,73.08,45.93Z"/><path class="cls-3" d="M42.88,22.81A27.64,27.64,0,0,1,70.33,47.37a28.28,28.28,0,0,0,.17-3.07,27.63,27.63,0,1,0-55.25,0,28.28,28.28,0,0,0,.17,3.07A27.63,27.63,0,0,1,42.88,22.81Z"/><path class="cls-1" d="M89.19,23.88h6.35v7H89.19ZM95.54,36.1V61.78l-6.35.57V36.77Z"/><path class="cls-1" d="M123.46,45.75v16l-6.38.57V47.12a6.28,6.28,0,0,0-1-3.78A3.35,3.35,0,0,0,113.27,42a3.76,3.76,0,0,0-3.22,1.46,7,7,0,0,0-1.11,4.31v14l-6.38.57V36.77l6.38-.67V39a10.16,10.16,0,0,1,3.24-2.39,9.26,9.26,0,0,1,3.85-.81,6.53,6.53,0,0,1,5.59,2.46Q123.46,40.72,123.46,45.75Z"/><path class="cls-1" d="M148.85,39.46a10.29,10.29,0,0,1,3.32-2.71,9.13,9.13,0,0,1,4.06-.91,6.45,6.45,0,0,1,5.53,2.45c1.2,1.64,1.81,4.12,1.81,7.46v16l-6.38.57V47.12a6.36,6.36,0,0,0-.87-3.63,2.81,2.81,0,0,0-2.47-1.27,3.38,3.38,0,0,0-2.93,1.41,7.17,7.17,0,0,0-1,4.17v14l-6.38.57V47.12a6.63,6.63,0,0,0-.83-3.63,2.73,2.73,0,0,0-2.44-1.27,3.38,3.38,0,0,0-2.93,1.41,7.09,7.09,0,0,0-1,4.17v14l-6.38.57V36.77l6.38-.67V39a10.64,10.64,0,0,1,3.08-2.31,7.44,7.44,0,0,1,7,.07A6.39,6.39,0,0,1,148.85,39.46Z"/><path class="cls-1" d="M188.64,45V61.71l-5.84.64V59.88a7.24,7.24,0,0,1-2.59,2.06,8.12,8.12,0,0,1-3.47.7,8,8,0,0,1-6-2.5,8.68,8.68,0,0,1-2.41-6.25,8.85,8.85,0,0,1,2.42-6.43A8.49,8.49,0,0,1,177.1,45a8.18,8.18,0,0,1,3.14.56,5.84,5.84,0,0,1,2.31,1.65V44.91a2.9,2.9,0,0,0-1-2.53,6.63,6.63,0,0,0-3.62-.71,17.25,17.25,0,0,0-3,.28,21.47,21.47,0,0,0-3.06.78l1.5-6.09c1.37-.19,2.57-.33,3.61-.41s2-.13,2.77-.13q4.88,0,6.9,1.78C188,39.06,188.64,41.45,188.64,45Zm-10.1,5a4.06,4.06,0,0,0-2.87,1,3.39,3.39,0,0,0,0,5.05,4.58,4.58,0,0,0,5.76,0,3.35,3.35,0,0,0,0-5.05A4.08,4.08,0,0,0,178.54,50.07Z"/><path class="cls-1" d="M208.45,36.29v6.25c-2.63,0-4.44.54-5.42,1.48s-1.47,2.7-1.47,5.28V61.78l-6.38.57V36.77l6.38-.67v3.3a7.59,7.59,0,0,1,2.91-2.34A9.64,9.64,0,0,1,208.45,36.29Z"/><path class="cls-1" d="M205.59,25.58a3,3,0,1,1,0,6,3,3,0,1,1,0-6Zm0,.59a2.38,2.38,0,0,0,0,4.75,2.27,2.27,0,0,0,2.26-2.37,2.3,2.3,0,0,0-2.28-2.38Zm-.45,3.92h-.69v-3a6.21,6.21,0,0,1,1.14-.1,1.7,1.7,0,0,1,1,.23.79.79,0,0,1,.29.63.76.76,0,0,1-.61.71v0c.29.09.45.32.54.72a2,2,0,0,0,.22.73h-.74a2.44,2.44,0,0,1-.24-.71c0-.33-.23-.47-.61-.47h-.33Zm0-1.67h.32c.38,0,.69-.13.69-.43s-.2-.46-.63-.46a1.49,1.49,0,0,0-.38,0Z"/><line class="cls-4" x1="239.61" y1="16.98" x2="239.61" y2="76.98"/><path class="cls-5" d="M274.59,33.23h3.06V57.39h-3.06Z"/><path class="cls-5" d="M284,39.49h2.51l.25,2.58h.12c1.69-1.69,3.53-3,6-3,3.75,0,5.45,2.43,5.45,7V57.39h-3V46.45c0-3.35-1-4.79-3.39-4.79-1.84,0-3.09,1-4.9,2.77v13h-3Z"/><path class="cls-5" d="M304.64,42H302V39.68l2.8-.19.37-5h2.54v5h4.82V42H307.7V51.9c0,2.21.7,3.46,2.76,3.46a6.48,6.48,0,0,0,2-.48l.59,2.29a11.07,11.07,0,0,1-3.31.66c-3.83,0-5.12-2.43-5.12-6Z"/><path class="cls-5" d="M322.91,39.05c4.56,0,7.14,3.28,7.14,8.4a11.09,11.09,0,0,1-.11,1.65H317.86c.22,3.87,2.54,6.3,6,6.3a8,8,0,0,0,4.45-1.4l1.07,2a10.69,10.69,0,0,1-5.89,1.84c-4.79,0-8.58-3.5-8.58-9.35S318.82,39.05,322.91,39.05Zm4.49,8.06c0-3.64-1.62-5.67-4.42-5.67-2.51,0-4.79,2.07-5.16,5.67Z"/><path class="cls-5" d="M334.47,31.17h3V54c0,1,.4,1.32.84,1.32a2.68,2.68,0,0,0,.67-.07l.4,2.28a3.94,3.94,0,0,1-1.73.3c-2.28,0-3.2-1.44-3.2-4Z"/><path class="cls-5" d="M343.86,31.17h3V54c0,1,.4,1.32.84,1.32a2.68,2.68,0,0,0,.67-.07l.4,2.28a3.94,3.94,0,0,1-1.73.3c-2.28,0-3.2-1.44-3.2-4Z"/><path class="cls-5" d="M352.7,33.86a2.1,2.1,0,0,1,4.19,0,2.1,2.1,0,0,1-4.19,0Zm.55,5.63h3v17.9h-3Z"/><path class="cls-5" d="M363.56,56.76v-.15A3.29,3.29,0,0,1,362,53.7a4.22,4.22,0,0,1,2-3.31v-.15a6.3,6.3,0,0,1-2.32-4.82c0-3.9,3.09-6.37,6.73-6.37a7.06,7.06,0,0,1,2.54.44h6.23v2.32h-3.68a5.21,5.21,0,0,1,1.47,3.68c0,3.83-2.91,6.23-6.56,6.23a6.16,6.16,0,0,1-2.68-.63,2.7,2.7,0,0,0-1.15,2.14c0,1.14.74,2,3.17,2h3.46c4.16,0,6.26,1.29,6.26,4.27,0,3.31-3.5,6.18-9.06,6.18-4.38,0-7.4-1.73-7.4-4.82A5.18,5.18,0,0,1,363.56,56.76Zm5.23,6.78c3.42,0,5.67-1.77,5.67-3.65,0-1.66-1.29-2.21-3.61-2.21h-3.09a8.8,8.8,0,0,1-2.33-.29,3.78,3.78,0,0,0-1.84,3C363.59,62.32,365.55,63.54,368.79,63.54Zm3.35-18.12c0-2.61-1.7-4.16-3.8-4.16s-3.79,1.55-3.79,4.16,1.73,4.27,3.79,4.27S372.14,48,372.14,45.42Z"/><path class="cls-5" d="M387.05,39.05c4.57,0,7.14,3.28,7.14,8.4a9.89,9.89,0,0,1-.11,1.65H382c.22,3.87,2.54,6.3,6,6.3a8.07,8.07,0,0,0,4.46-1.4l1.06,2a10.67,10.67,0,0,1-5.89,1.84c-4.78,0-8.58-3.5-8.58-9.35S383,39.05,387.05,39.05Zm4.49,8.06c0-3.64-1.62-5.67-4.42-5.67-2.5,0-4.78,2.07-5.15,5.67Z"/><path class="cls-5" d="M398.61,39.49h2.51l.25,2.58h.11c1.7-1.69,3.54-3,6-3,3.75,0,5.45,2.43,5.45,7V57.39h-3V46.45c0-3.35-1-4.79-3.39-4.79-1.84,0-3.09,1-4.9,2.77v13h-3Z"/><path class="cls-5" d="M419.27,42h-2.65V39.68l2.8-.19.37-5h2.54v5h4.82V42h-4.82V51.9c0,2.21.7,3.46,2.76,3.46a6.48,6.48,0,0,0,2-.48l.59,2.29a11.07,11.07,0,0,1-3.31.66c-3.83,0-5.12-2.43-5.12-6Z"/><path class="cls-5" d="M448.29,32.79a8.8,8.8,0,0,1,6.59,3l-1.73,1.95a6.34,6.34,0,0,0-4.83-2.24c-4.6,0-7.62,3.75-7.62,9.76s2.91,9.9,7.48,9.9a7.07,7.07,0,0,0,5.56-2.69l1.73,1.88a9.33,9.33,0,0,1-7.37,3.5c-6.07,0-10.56-4.64-10.56-12.52S442.1,32.79,448.29,32.79Z"/><path class="cls-5" d="M466.63,39.05c4.38,0,8.28,3.42,8.28,9.43s-3.9,9.35-8.28,9.35-8.29-3.43-8.29-9.35S462.24,39.05,466.63,39.05Zm0,16.27c3.09,0,5.15-2.76,5.15-6.84s-2.06-6.93-5.15-6.93-5.16,2.8-5.16,6.93S463.57,55.32,466.63,55.32Z"/><path class="cls-5" d="M479.63,39.49h2.5l.26,2.58h.11c1.54-1.69,3.42-3,5.56-3A4.7,4.7,0,0,1,493,42.47c1.88-2,3.72-3.42,5.89-3.42,3.68,0,5.45,2.43,5.45,7V57.39h-3V46.45c0-3.35-1.07-4.79-3.31-4.79-1.4,0-2.84.93-4.49,2.77v13h-3V46.45c0-3.35-1.07-4.79-3.35-4.79-1.33,0-2.84.93-4.5,2.77v13h-3Z"/><path class="cls-5" d="M510.15,39.49h2.5l.26,2.58H513c1.55-1.69,3.43-3,5.56-3a4.7,4.7,0,0,1,4.94,3.42c1.87-2,3.72-3.42,5.89-3.42,3.68,0,5.45,2.43,5.45,7V57.39h-3V46.45c0-3.35-1.07-4.79-3.32-4.79-1.39,0-2.83.93-4.49,2.77v13h-3V46.45c0-3.35-1.06-4.79-3.35-4.79-1.32,0-2.83.93-4.49,2.77v13h-3Z"/><path class="cls-5" d="M547.38,39.05c4.56,0,7.14,3.28,7.14,8.4a11.09,11.09,0,0,1-.11,1.65H542.33c.23,3.87,2.55,6.3,6,6.3a8,8,0,0,0,4.45-1.4l1.07,2a10.67,10.67,0,0,1-5.89,1.84c-4.79,0-8.58-3.5-8.58-9.35S543.29,39.05,547.38,39.05Zm4.49,8.06c0-3.64-1.62-5.67-4.42-5.67-2.5,0-4.78,2.07-5.15,5.67Z"/><path class="cls-5" d="M558.94,39.49h2.5l.26,3.24h.11c1.22-2.24,3.06-3.68,5.08-3.68a4.42,4.42,0,0,1,1.92.37l-.59,2.65a5.09,5.09,0,0,0-1.73-.29c-1.51,0-3.31,1.1-4.53,4.12V57.39h-3Z"/><path class="cls-5" d="M578.64,39.05a7.33,7.33,0,0,1,5.23,2.14l-1.51,2a5.42,5.42,0,0,0-3.61-1.59c-3.24,0-5.59,2.8-5.59,6.93s2.24,6.84,5.52,6.84a6.38,6.38,0,0,0,4.2-1.8l1.36,2a8.89,8.89,0,0,1-5.82,2.32c-4.75,0-8.39-3.43-8.39-9.35S574,39.05,578.64,39.05Z"/><path class="cls-5" d="M594.07,39.05c4.57,0,7.14,3.28,7.14,8.4a9.89,9.89,0,0,1-.11,1.65H589c.22,3.87,2.54,6.3,6,6.3a8.1,8.1,0,0,0,4.46-1.4l1.06,2a10.67,10.67,0,0,1-5.89,1.84c-4.78,0-8.58-3.5-8.58-9.35S590,39.05,594.07,39.05Zm4.49,8.06c0-3.64-1.62-5.67-4.42-5.67-2.5,0-4.78,2.07-5.15,5.67Z"/></svg>